<?xml version="1.0" encoding="utf-8"?>
<!-- Generator: Adobe Illustrator 24.1.2, SVG Export Plug-In . SVG Version: 6.00 Build 0)  -->
<svg version="1.1" id="Layer_1" xmlns="http://www.w3.org/2000/svg" xmlns:xlink="http://www.w3.org/1999/xlink" x="0px" y="0px"
	 viewBox="0 0 48 48" style="enable-background:new 0 0 48 48;" xml:space="preserve">
<style type="text/css">
	.st0{fill:#F3F5F9;stroke:#131518;stroke-width:0.7;stroke-miterlimit:10;}
</style>
<path class="st0" d="M14.3,42c-0.3-0.3-0.4-0.7-0.4-1.1c0-0.4,0.1-0.8,0.4-1.2l15.9-15.9L14.3,8.1C14,7.8,13.8,7.4,13.8,7
	s0.1-0.8,0.5-1.2c0.3-0.3,0.7-0.5,1.1-0.5c0.5,0,0.9,0.1,1.1,0.4l17.2,17.1c0.2,0.2,0.3,0.3,0.3,0.5c0.1,0.2,0.1,0.3,0.1,0.5
	s0,0.4-0.1,0.5c-0.1,0.2-0.2,0.3-0.3,0.5L16.5,42.1c-0.3,0.3-0.7,0.5-1.1,0.5S14.6,42.4,14.3,42z"/>
</svg>
