<?xml version="1.0" encoding="utf-8"?>
<!-- Generator: Adobe Illustrator 24.1.2, SVG Export Plug-In . SVG Version: 6.00 Build 0)  -->
<svg version="1.1" id="Layer_1" xmlns="http://www.w3.org/2000/svg" xmlns:xlink="http://www.w3.org/1999/xlink" x="0px" y="0px"
	 viewBox="0 0 48 48" style="enable-background:new 0 0 48 48;" xml:space="preserve">
<style type="text/css">
	.st0{fill:#F3F5F9;stroke:#131518;stroke-width:0.7;stroke-miterlimit:10;}
</style>
<path class="st0" d="M31.4,42.2L14.3,25c-0.2-0.1-0.3-0.3-0.4-0.5c-0.1-0.2-0.1-0.4-0.1-0.5s0-0.4,0.1-0.5c0.1-0.2,0.2-0.3,0.4-0.5
	L31.4,5.8c0.3-0.3,0.7-0.4,1.2-0.4s0.8,0.2,1.1,0.5C34,6.2,34.2,6.5,34.2,7S34,7.9,33.7,8.2L17.9,24l15.9,15.8
	c0.3,0.3,0.5,0.7,0.5,1.2s-0.2,0.8-0.5,1.2c-0.3,0.3-0.7,0.5-1.2,0.5C32.1,42.6,31.7,42.5,31.4,42.2z"/>
</svg>
